<svg width="24" height="24" viewBox="0 0 24 24" fill="none" xmlns="http://www.w3.org/2000/svg">
<g opacity="0.4">
<path opacity="0.4" d="M23 20H20.1053V23H23V20Z" fill="url(#paint0_radial)"/>
<path opacity="0.4" d="M1.00001 23H3.89474V20H1.00001V23Z" fill="url(#paint1_radial)"/>
<path opacity="0.4" d="M20.1053 20H3.89474V23H20.1053V20Z" fill="url(#paint2_linear)"/>
</g>
<rect x="3" y="3" width="18" height="18" rx="2.5" fill="url(#paint3_radial)"/>
<rect x="2.75893" y="2.75893" width="18.4821" height="18.4821" rx="2.74107" stroke="#1C2C38" stroke-opacity="0.2" stroke-width="0.482143"/>
<rect x="2.51786" y="2.51786" width="18.9643" height="18.9643" rx="2.98214" stroke="#387E8C" stroke-opacity="0.5" stroke-width="0.964286"/>
<rect opacity="0.3" x="3.48214" y="3.48214" width="17.0357" height="17.0357" rx="2.01786" stroke="url(#paint4_linear)" stroke-width="0.964286" stroke-linecap="round" stroke-linejoin="round"/>
<rect x="5" y="5.00001" width="14" height="14" rx="0.8" fill="#98CED8"/>
<rect x="4.75893" y="4.75894" width="14.4821" height="14.4821" rx="1.04107" stroke="#1C2C38" stroke-opacity="0.2" stroke-width="0.482143"/>
<rect x="4.51786" y="4.51787" width="14.9643" height="14.9643" rx="1.28214" stroke="#387E8C" stroke-opacity="0.5" stroke-width="0.964286"/>
<g opacity="0.3">
<mask id="path-11-inside-1" fill="white">
<rect width="14" height="14" rx="0.8" transform="matrix(1 0 0 -1 5 19)"/>
</mask>
<rect width="14" height="14" rx="0.8" transform="matrix(1 0 0 -1 5 19)" stroke="url(#paint5_linear)" stroke-width="1.92857" stroke-linecap="round" stroke-linejoin="round" mask="url(#path-11-inside-1)"/>
</g>
<rect x="7" y="7.00001" width="10" height="10" rx="0.2" fill="#7ABDCB"/>
<rect x="6.75893" y="6.75894" width="10.4821" height="10.4821" rx="0.441071" stroke="#1C2C38" stroke-opacity="0.2" stroke-width="0.482143"/>
<rect x="6.51786" y="6.51786" width="10.9643" height="10.9643" rx="0.682143" stroke="#387E8C" stroke-opacity="0.5" stroke-width="0.964286"/>
<g opacity="0.3">
<mask id="path-15-inside-2" fill="white">
<rect width="10" height="10" rx="0.2" transform="matrix(1 0 0 -1 7 17)"/>
</mask>
<rect width="10" height="10" rx="0.2" transform="matrix(1 0 0 -1 7 17)" stroke="url(#paint6_linear)" stroke-width="1.92857" stroke-linecap="round" stroke-linejoin="round" mask="url(#path-15-inside-2)"/>
</g>
<rect x="9" y="9" width="6" height="6" rx="0.1" fill="#62ADBF"/>
<rect x="8.75893" y="8.75892" width="6.48214" height="6.48214" rx="0.341071" stroke="#1C2C38" stroke-opacity="0.2" stroke-width="0.482143"/>
<rect x="8.51786" y="8.51785" width="6.96429" height="6.96429" rx="0.582143" stroke="#387E8C" stroke-opacity="0.5" stroke-width="0.964286"/>
<g opacity="0.3">
<mask id="path-19-inside-3" fill="white">
<rect width="6" height="6" rx="0.1" transform="matrix(1 0 0 -1 9 15)"/>
</mask>
<rect width="6" height="6" rx="0.1" transform="matrix(1 0 0 -1 9 15)" stroke="url(#paint7_linear)" stroke-width="1.92857" stroke-linecap="round" stroke-linejoin="round" mask="url(#path-19-inside-3)"/>
</g>
<mask id="mask0" mask-type="alpha" maskUnits="userSpaceOnUse" x="9" y="9" width="6" height="6">
<rect x="9" y="9" width="6" height="6" rx="0.1" fill="#C4C4C4"/>
</mask>
<g mask="url(#mask0)">
<rect x="9" y="9" width="3" height="3" fill="#5591A0"/>
<rect x="12" y="12" width="3" height="3" fill="#65ADBE"/>
<rect x="12" y="9" width="3" height="3" fill="#2A484F"/>
<rect x="9" y="12" width="3" height="3" fill="#487C88"/>
</g>
<rect opacity="0.3" width="6" height="6" rx="0.1" transform="matrix(1 0 0 -1 9 15)" stroke="#333333" stroke-width="0.964286" stroke-linecap="round" stroke-linejoin="round"/>
<defs>
<radialGradient id="paint0_radial" cx="0" cy="0" r="1" gradientUnits="userSpaceOnUse" gradientTransform="translate(20.1012 21.5) scale(2.90022 1.5)">
<stop stop-color="#181818"/>
<stop offset="1" stop-color="#181818" stop-opacity="0"/>
</radialGradient>
<radialGradient id="paint1_radial" cx="0" cy="0" r="1" gradientUnits="userSpaceOnUse" gradientTransform="translate(3.89881 21.5) rotate(180) scale(2.90022 1.5)">
<stop stop-color="#181818"/>
<stop offset="1" stop-color="#181818" stop-opacity="0"/>
</radialGradient>
<linearGradient id="paint2_linear" x1="12.6126" y1="23.0119" x2="12.6126" y2="19.9998" gradientUnits="userSpaceOnUse">
<stop stop-color="#181818" stop-opacity="0"/>
<stop offset="0.5" stop-color="#181818"/>
<stop offset="1" stop-color="#181818" stop-opacity="0"/>
</linearGradient>
<radialGradient id="paint3_radial" cx="0" cy="0" r="1" gradientUnits="userSpaceOnUse" gradientTransform="translate(12.3836 -6.57162) rotate(90) scale(55.547 68.194)">
<stop stop-color="#DCFAFF"/>
<stop offset="0.26238" stop-color="#D9FAFF" stop-opacity="0.9"/>
<stop offset="0.704952" stop-color="#80CFD4"/>
<stop offset="1" stop-color="#7EC2C2"/>
</radialGradient>
<linearGradient id="paint4_linear" x1="12" y1="2.75676" x2="12" y2="21.2432" gradientUnits="userSpaceOnUse">
<stop stop-color="white"/>
<stop offset="0.0631645" stop-color="white" stop-opacity="0.235294"/>
<stop offset="0.950563" stop-color="white" stop-opacity="0.156863"/>
<stop offset="1" stop-color="white" stop-opacity="0.392157"/>
</linearGradient>
<linearGradient id="paint5_linear" x1="7" y1="-0.18919" x2="7" y2="14.1892" gradientUnits="userSpaceOnUse">
<stop stop-color="white"/>
<stop offset="0.0631645" stop-color="white" stop-opacity="0.235294"/>
<stop offset="0.950563" stop-color="#808080" stop-opacity="0.156863"/>
<stop offset="1" stop-opacity="0.392157"/>
</linearGradient>
<linearGradient id="paint6_linear" x1="5" y1="-0.135135" x2="5" y2="10.1351" gradientUnits="userSpaceOnUse">
<stop stop-color="white"/>
<stop offset="0.0631645" stop-color="white" stop-opacity="0.235294"/>
<stop offset="0.950563" stop-color="#818181" stop-opacity="0.156863"/>
<stop offset="1" stop-opacity="0.392157"/>
</linearGradient>
<linearGradient id="paint7_linear" x1="3" y1="-0.0810812" x2="3" y2="6.08108" gradientUnits="userSpaceOnUse">
<stop stop-color="white"/>
<stop offset="0.0631645" stop-color="white" stop-opacity="0.235294"/>
<stop offset="0.950563" stop-color="#808080" stop-opacity="0.156863"/>
<stop offset="1" stop-opacity="0.392157"/>
</linearGradient>
</defs>
</svg>
