<svg width="64" height="64" viewBox="0 0 64 64" fill="none" xmlns="http://www.w3.org/2000/svg">
<path d="M59.5 58.9996C59.4975 60.6451 47.0845 61.9991 32 61.9991C16.9155 61.9991 4.5025 60.6451 4.5 58.9996V58.9991C4.5 57.3531 16.914 55.9991 32 55.9991C47.086 55.9991 59.5 57.3531 59.5 58.9991V58.9996Z" fill="url(#paint0_radial)"/>
<g opacity="0.4">
<path opacity="0.4" d="M58.9998 58H51.8946V60.5H58.9998V58Z" fill="url(#paint1_radial)"/>
<g opacity="0.4">
<path opacity="0.4" d="M5.00019 60.5H12.1055V58H5.00019V60.5Z" fill="url(#paint2_radial)"/>
</g>
<path opacity="0.4" d="M51.895 58H12.1055V60.5H51.895V58Z" fill="url(#paint3_linear)"/>
</g>
<path fill-rule="evenodd" clip-rule="evenodd" d="M57.75 10.7775C57.75 9.1065 56.3935 7.75 54.7225 7.75H9.2775C7.6065 7.75 6.25 9.1065 6.25 10.7775V56.2225C6.25 57.8935 7.6065 59.25 9.2775 59.25H54.7225C56.3935 59.25 57.75 57.8935 57.75 56.2225V10.7775Z" fill="url(#paint4_radial)"/>
<path fill-rule="evenodd" clip-rule="evenodd" d="M57.25 10.75C57.25 9.37 56.13 8.25 54.75 8.25H9.25C7.87 8.25 6.75 9.37 6.75 10.75V56.25C6.75 57.63 7.87 58.75 9.25 58.75H54.75C56.13 58.75 57.25 57.63 57.25 56.25V10.75Z" stroke="url(#paint5_linear)" stroke-width="0.0078125" stroke-linecap="round" stroke-linejoin="round"/>
<path fill-rule="evenodd" clip-rule="evenodd" d="M57.75 10.75C57.75 9.0945 56.4055 7.75 54.75 7.75H9.25C7.5945 7.75 6.25 9.0945 6.25 10.75V56.25C6.25 57.9055 7.5945 59.25 9.25 59.25H54.75C56.4055 59.25 57.75 57.9055 57.75 56.25V10.75Z" stroke="#403634" stroke-opacity="0.5" stroke-width="0.0078125" stroke-linecap="round" stroke-linejoin="round"/>
<path d="M30 20C29.64 20 29.34 21.39 29.164 23.377C28.233 23.631 27.339 24.0065 26.506 24.494C24.9705 23.207 23.771 22.4305 23.5155 22.6855L20.6855 25.5155C20.4305 25.771 21.207 26.9705 22.494 28.506C22.01 29.3395 21.638 30.2335 21.3865 31.164C19.3945 31.34 18 31.6395 18 32V36C18 36.36 19.39 36.66 21.377 36.836C21.6295 37.769 22.0035 38.665 22.49 39.5C21.206 41.033 20.4305 42.2295 20.6855 42.4845L23.5155 45.3145C23.7705 45.569 24.9655 44.7955 26.496 43.5135C27.3335 43.996 28.2305 44.3655 29.164 44.6135C29.34 46.6055 29.6395 48 30 48H34C34.36 48 34.66 46.61 34.836 44.623C35.767 44.369 36.661 43.9935 37.494 43.506C39.0295 44.793 40.229 45.5695 40.4845 45.3145L43.3145 42.4845C43.5695 42.229 42.793 41.0295 41.506 39.494C41.99 38.6605 42.362 37.7665 42.6135 36.836C44.6055 36.66 46 36.3605 46 36V32C46 31.64 44.61 31.34 42.623 31.164C42.3705 30.231 41.9965 29.335 41.51 28.5C42.794 26.967 43.5695 25.7705 43.3145 25.5155L40.4845 22.6855C40.2295 22.431 39.0345 23.2045 37.504 24.4865C36.6665 24.004 35.7695 23.6345 34.836 23.3865C34.66 21.3945 34.3605 20 34 20H30ZM32 29C34.743 29 37 31.257 37 34C37 36.743 34.743 39 32 39C29.257 39 27 36.743 27 34C27 31.257 29.257 29 32 29Z" fill="white" fill-opacity="0.1"/>
<path d="M30 19.5C29.64 19.5 29.34 20.89 29.164 22.877C28.233 23.131 27.339 23.5065 26.506 23.994C24.9705 22.707 23.771 21.9305 23.5155 22.1855L20.6855 25.0155C20.4305 25.271 21.207 26.4705 22.494 28.006C22.01 28.8395 21.638 29.7335 21.3865 30.664C19.3945 30.84 18 31.1395 18 31.5V35.5C18 35.86 19.39 36.16 21.377 36.336C21.6295 37.269 22.0035 38.165 22.49 39C21.206 40.533 20.4305 41.7295 20.6855 41.9845L23.5155 44.8145C23.7705 45.069 24.9655 44.2955 26.496 43.0135C27.3335 43.496 28.2305 43.8655 29.164 44.1135C29.34 46.1055 29.6395 47.5 30 47.5H34C34.36 47.5 34.66 46.11 34.836 44.123C35.767 43.869 36.661 43.4935 37.494 43.006C39.0295 44.293 40.229 45.0695 40.4845 44.8145L43.3145 41.9845C43.5695 41.729 42.793 40.5295 41.506 38.994C41.99 38.1605 42.362 37.2665 42.6135 36.336C44.6055 36.16 46 35.8605 46 35.5V31.5C46 31.14 44.61 30.84 42.623 30.664C42.3705 29.731 41.9965 28.835 41.51 28C42.794 26.467 43.5695 25.2705 43.3145 25.0155L40.4845 22.1855C40.2295 21.931 39.0345 22.7045 37.504 23.9865C36.6665 23.504 35.7695 23.1345 34.836 22.8865C34.66 20.8945 34.3605 19.5 34 19.5H30ZM32 28.5C34.743 28.5 37 30.757 37 33.5C37 36.243 34.743 38.5 32 38.5C29.257 38.5 27 36.243 27 33.5C27 30.757 29.257 28.5 32 28.5Z" fill="#403634"/>
<path fill-rule="evenodd" clip-rule="evenodd" d="M30.041 19.75C30.0275 19.765 30.0015 19.797 29.9715 19.8565C29.9065 19.986 29.831 20.208 29.7625 20.495C29.626 21.0695 29.5065 21.907 29.419 22.8935C29.409 23.001 29.3335 23.091 29.2295 23.119C28.321 23.367 27.446 23.7365 26.633 24.212C26.539 24.2665 26.421 24.256 26.338 24.1865C25.5755 23.5475 24.8965 23.036 24.3915 22.7245C24.139 22.569 23.9275 22.463 23.789 22.417C23.726 22.396 23.6845 22.3915 23.664 22.3905L20.8915 25.164C20.8925 25.1845 20.897 25.226 20.918 25.289C20.964 25.4275 21.069 25.639 21.2245 25.8915C21.536 26.3965 22.0475 27.0755 22.6865 27.838C22.756 27.921 22.766 28.038 22.712 28.132C22.2395 28.9455 21.875 29.8215 21.63 30.7295C21.6015 30.834 21.511 30.9095 21.4035 30.919C20.414 31.0065 19.574 31.126 18.998 31.2625C18.71 31.331 18.4875 31.4055 18.3575 31.4705C18.298 31.5005 18.265 31.5265 18.25 31.54V35.459C18.265 35.4725 18.297 35.4985 18.3565 35.5285C18.486 35.5935 18.708 35.669 18.995 35.7375C19.5695 35.874 20.407 35.9935 21.3935 36.081C21.5015 36.0905 21.592 36.166 21.62 36.2705C21.8665 37.181 22.2335 38.058 22.708 38.873C22.7625 38.967 22.7525 39.085 22.6825 39.168C22.045 39.929 21.5355 40.6065 21.2245 41.1105C21.069 41.3625 20.9635 41.574 20.918 41.712C20.897 41.775 20.8925 41.8155 20.8915 41.836L23.664 44.6095C23.6845 44.6085 23.725 44.604 23.788 44.583C23.926 44.5375 24.137 44.4315 24.3885 44.2765C24.892 43.966 25.568 43.4575 26.328 42.8215C26.411 42.7515 26.5285 42.741 26.622 42.795C27.439 43.2655 28.3175 43.6285 29.2285 43.87C29.3335 43.898 29.4095 43.9885 29.419 44.0965C29.5065 45.086 29.626 45.926 29.7625 46.502C29.831 46.79 29.9055 47.0125 29.9705 47.1425C30.0005 47.202 30.0265 47.235 30.04 47.25H33.959C33.9725 47.235 33.9985 47.203 34.0285 47.1435C34.0935 47.014 34.169 46.792 34.2375 46.505C34.374 45.9305 34.4935 45.093 34.581 44.1065C34.591 43.999 34.6665 43.909 34.7705 43.881C35.679 43.633 36.554 43.2635 37.367 42.788C37.461 42.7335 37.579 42.744 37.662 42.8135C38.4245 43.4525 39.1035 43.964 39.6085 44.2755C39.861 44.431 40.0725 44.537 40.211 44.583C40.274 44.604 40.3155 44.6085 40.336 44.6095L43.1085 41.836C43.1075 41.8155 43.103 41.774 43.082 41.711C43.036 41.5725 42.931 41.361 42.7755 41.1085C42.464 40.6035 41.9525 39.9245 41.3135 39.162C41.244 39.079 41.234 38.962 41.288 38.868C41.7605 38.0545 42.125 37.1785 42.37 36.2705C42.3985 36.166 42.489 36.0905 42.5965 36.081C43.586 35.9935 44.426 35.874 45.002 35.7375C45.29 35.669 45.5125 35.5945 45.6425 35.5295C45.702 35.4995 45.735 35.4735 45.75 35.46V31.541C45.735 31.5275 45.703 31.5015 45.6435 31.4715C45.514 31.4065 45.292 31.331 45.005 31.2625C44.4305 31.126 43.593 31.0065 42.6065 30.919C42.4985 30.9095 42.408 30.834 42.38 30.7295C42.1335 29.819 41.7665 28.942 41.292 28.127C41.2375 28.033 41.2475 27.915 41.3175 27.832C41.955 27.071 42.4645 26.3935 42.7755 25.8895C42.931 25.6375 43.0365 25.426 43.082 25.288C43.103 25.225 43.1075 25.1845 43.1085 25.164L40.336 22.3905C40.3155 22.3915 40.275 22.396 40.212 22.417C40.074 22.4625 39.863 22.5685 39.6115 22.7235C39.108 23.034 38.432 23.5425 37.672 24.1785C37.589 24.2485 37.4715 24.259 37.378 24.205C36.561 23.7345 35.6825 23.3715 34.7715 23.13C34.6665 23.102 34.5905 23.0115 34.581 22.9035C34.4935 21.914 34.374 21.074 34.2375 20.498C34.169 20.21 34.0945 19.9875 34.0295 19.8575C33.9995 19.798 33.9735 19.765 33.96 19.75H30.041Z" stroke="black" stroke-opacity="0.05" stroke-width="0.0078125"/>
<path fill-rule="evenodd" clip-rule="evenodd" d="M32.0001 38.7477C35.0931 38.8467 37.7416 35.7572 37.1731 32.7107C36.8036 29.7412 33.5666 27.5997 30.6931 28.4337C27.7811 29.0982 25.9741 32.5292 27.0846 35.3087C27.8006 37.3347 29.8506 38.7782 32.0001 38.7477Z" stroke="url(#paint6_linear)" stroke-width="0.0078125"/>
<defs>
<radialGradient id="paint0_radial" cx="0" cy="0" r="1" gradientUnits="userSpaceOnUse" gradientTransform="translate(32 58.9996) scale(27.5 3)">
<stop stop-opacity="0.2"/>
<stop offset="1" stop-opacity="0"/>
</radialGradient>
<radialGradient id="paint1_radial" cx="0" cy="0" r="1" gradientUnits="userSpaceOnUse" gradientTransform="translate(51.8846 59.25) scale(7.11872 1.25)">
<stop stop-color="#181818"/>
<stop offset="1" stop-color="#181818" stop-opacity="0"/>
</radialGradient>
<radialGradient id="paint2_radial" cx="0" cy="0" r="1" gradientUnits="userSpaceOnUse" gradientTransform="translate(12.1154 59.25) rotate(180) scale(7.11872 1.25)">
<stop stop-color="#181818"/>
<stop offset="1" stop-color="#181818" stop-opacity="0"/>
</radialGradient>
<linearGradient id="paint3_linear" x1="33.5039" y1="60.5099" x2="33.5039" y2="57.9998" gradientUnits="userSpaceOnUse">
<stop stop-color="#181818" stop-opacity="0"/>
<stop offset="0.5" stop-color="#181818"/>
<stop offset="1" stop-color="#181818" stop-opacity="0"/>
</linearGradient>
<radialGradient id="paint4_radial" cx="0" cy="0" r="1" gradientUnits="userSpaceOnUse" gradientTransform="translate(33.0974 -19.6354) rotate(90) scale(158.926 195.11)">
<stop stop-color="#685754"/>
<stop offset="0.26" stop-color="#685754"/>
<stop offset="0.7" stop-color="#594C4A"/>
<stop offset="1" stop-color="#594C4A"/>
</radialGradient>
<linearGradient id="paint5_linear" x1="32" y1="7.56755" x2="32" y2="59.4325" gradientUnits="userSpaceOnUse">
<stop stop-color="white" stop-opacity="0.3"/>
<stop offset="0.06" stop-color="white" stop-opacity="0.0705882"/>
<stop offset="0.95" stop-color="white" stop-opacity="0.0470588"/>
<stop offset="1" stop-color="white" stop-opacity="0.117647"/>
</linearGradient>
<linearGradient id="paint6_linear" x1="37.6076" y1="38.8983" x2="37.6076" y2="33.306" gradientUnits="userSpaceOnUse">
<stop stop-opacity="0.05"/>
<stop offset="1" stop-opacity="0"/>
</linearGradient>
</defs>
</svg>
