<svg width="128" height="128" viewBox="0 0 128 128" fill="none" xmlns="http://www.w3.org/2000/svg">
<path opacity="0.2" d="M119 118C118.998 119.591 113.202 121.117 102.888 122.242C92.5733 123.367 78.5853 123.999 64 123.999C49.4147 123.999 35.4267 123.367 25.1124 122.242C14.7982 121.117 9.00249 119.591 9 118C8.99877 117.212 10.4205 116.432 13.1839 115.704C15.9474 114.976 19.9985 114.314 25.1058 113.757C30.2132 113.199 36.2767 112.757 42.9502 112.456C49.6238 112.154 56.7765 111.999 64 111.999C71.2235 111.999 78.3762 112.154 85.0498 112.456C91.7233 112.757 97.7868 113.199 102.894 113.757C108.002 114.314 112.053 114.976 114.816 115.704C117.58 116.432 119.001 117.212 119 118Z" fill="url(#paint0_radial_8:130)"/>
<g opacity="0.4">
<path opacity="0.4" d="M118 116H103.789V121H118V116Z" fill="url(#paint1_radial_8:130)"/>
<path opacity="0.4" d="M10 121H24.2105V116H10V121Z" fill="url(#paint2_radial_8:130)"/>
<path opacity="0.4" d="M103.789 116H24.2105V121H103.789V116Z" fill="url(#paint3_linear_8:130)"/>
</g>
<rect x="14" y="18" width="100" height="100" rx="10" fill="url(#paint4_radial_8:130)"/>
<rect x="14" y="18" width="100" height="100" rx="10" fill="#CCEAF0" style="mix-blend-mode:color"/>
<rect x="14" y="18" width="100" height="100" rx="10" fill="white" style="mix-blend-mode:soft-light"/>
<rect x="14" y="18" width="100" height="100" rx="10" fill="white" fill-opacity="0.8" style="mix-blend-mode:soft-light"/>
<rect x="13.75" y="17.75" width="100.5" height="100.5" rx="10.25" stroke="#1C2C38" stroke-opacity="0.2" stroke-width="0.5"/>
<rect x="13.5" y="17.5" width="101" height="101" rx="10.5" stroke="#387E8C" stroke-opacity="0.5"/>
<rect opacity="0.3" x="14.5" y="18.5" width="99" height="99" rx="9.5" stroke="url(#paint5_linear_8:130)" stroke-linecap="round" stroke-linejoin="round"/>
<rect x="24" y="28" width="80" height="80" rx="4" fill="#CCEAF0" style="mix-blend-mode:multiply"/>
<rect x="23.75" y="27.75" width="80.5" height="80.5" rx="4.25" stroke="#1C2C38" stroke-opacity="0.2" stroke-width="0.5"/>
<rect x="23.5" y="27.5" width="81" height="81" rx="4.5" stroke="#387E8C" stroke-opacity="0.5"/>
<rect opacity="0.3" x="0.5" y="-0.5" width="79" height="79" rx="3.5" transform="matrix(1 0 0 -1 24 107)" stroke="url(#paint6_linear_8:130)" stroke-linecap="round" stroke-linejoin="round"/>
<rect x="34" y="38" width="60" height="60" rx="2" fill="#CCEAF0" style="mix-blend-mode:multiply"/>
<rect x="33.75" y="37.75" width="60.5" height="60.5" rx="2.25" stroke="#1C2C38" stroke-opacity="0.2" stroke-width="0.5"/>
<rect x="33.5" y="37.5" width="61" height="61" rx="2.5" stroke="#387E8C" stroke-opacity="0.5"/>
<rect opacity="0.3" x="0.5" y="-0.5" width="59" height="59" rx="1.5" transform="matrix(1 0 0 -1 34 97)" stroke="url(#paint7_linear_8:130)" stroke-linecap="round" stroke-linejoin="round"/>
<rect x="44" y="48" width="40" height="40" rx="1" fill="#CCEAF0" style="mix-blend-mode:multiply"/>
<rect x="43.75" y="47.75" width="40.5" height="40.5" rx="1.25" stroke="#1C2C38" stroke-opacity="0.2" stroke-width="0.5"/>
<rect x="43.5" y="47.5" width="41" height="41" rx="1.5" stroke="#387E8C" stroke-opacity="0.5"/>
<rect opacity="0.3" x="0.5" y="-0.5" width="39" height="39" rx="0.5" transform="matrix(1 0 0 -1 44 87)" stroke="url(#paint8_linear_8:130)" stroke-linecap="round" stroke-linejoin="round"/>
<mask id="mask0_8:130" style="mask-type:alpha" maskUnits="userSpaceOnUse" x="44" y="48" width="40" height="40">
<rect x="44" y="48" width="40" height="40" rx="1" fill="#C4C4C4"/>
</mask>
<g mask="url(#mask0_8:130)">
<rect x="44" y="48" width="8" height="8" fill="#B3B3B3" style="mix-blend-mode:multiply"/>
<rect x="44" y="56" width="8" height="8" fill="#C7C7C7" style="mix-blend-mode:multiply"/>
<rect x="44" y="64" width="8" height="8" fill="white" style="mix-blend-mode:multiply"/>
<rect x="44" y="72" width="8" height="8" fill="#9A9A9A" style="mix-blend-mode:multiply"/>
<rect x="44" y="80" width="8" height="8" fill="#CECECE" style="mix-blend-mode:multiply"/>
<rect x="52" y="48" width="8" height="8" fill="#CECECE" style="mix-blend-mode:multiply"/>
<rect x="52" y="56" width="8" height="8" fill="#9A9A9A" style="mix-blend-mode:multiply"/>
<rect x="52" y="64" width="8" height="8" fill="#D6D6D6" style="mix-blend-mode:multiply"/>
<rect x="52" y="72" width="8" height="8" fill="white" style="mix-blend-mode:multiply"/>
<rect x="52" y="80" width="8" height="8" fill="#B0B0B0" style="mix-blend-mode:multiply"/>
<rect x="60" y="48" width="8" height="8" fill="#9A9A9A" style="mix-blend-mode:multiply"/>
<rect x="60" y="56" width="8" height="8" fill="#BBBBBB" style="mix-blend-mode:multiply"/>
<rect x="60" y="64" width="8" height="8" fill="#6A6A6A" style="mix-blend-mode:multiply"/>
<rect x="60" y="72" width="8" height="8" fill="#B3B3B3" style="mix-blend-mode:multiply"/>
<rect x="60" y="80" width="8" height="8" fill="#9A9A9A" style="mix-blend-mode:multiply"/>
<rect x="68" y="48" width="8" height="8" fill="white" style="mix-blend-mode:multiply"/>
<rect x="68" y="56" width="8" height="8" fill="#898989" style="mix-blend-mode:multiply"/>
<rect x="68" y="64" width="8" height="8" fill="#9A9A9A" style="mix-blend-mode:multiply"/>
<rect x="68" y="72" width="8" height="8" fill="#808080" style="mix-blend-mode:multiply"/>
<rect x="68" y="80" width="8" height="8" fill="white" style="mix-blend-mode:multiply"/>
<rect x="76" y="48" width="8" height="8" fill="#D6D6D6" style="mix-blend-mode:multiply"/>
<rect x="76" y="56" width="8" height="8" fill="#B3B3B3" style="mix-blend-mode:multiply"/>
<rect x="76" y="64" width="8" height="8" fill="#E1E1E1" style="mix-blend-mode:multiply"/>
<rect x="76" y="72" width="8" height="8" fill="#9A9A9A" style="mix-blend-mode:multiply"/>
<rect x="76" y="80" width="8" height="8" fill="#B9B9B9" style="mix-blend-mode:multiply"/>
</g>
<g opacity="0.3">
<rect width="40" height="40" rx="1" transform="matrix(1 0 0 -1 44 88)" stroke="#818181" stroke-linecap="round" stroke-linejoin="round" style="mix-blend-mode:multiply"/>
</g>
<defs>
<radialGradient id="paint0_radial_8:130" cx="0" cy="0" r="1" gradientUnits="userSpaceOnUse" gradientTransform="translate(64 118) scale(55 6)">
<stop/>
<stop offset="1" stop-opacity="0"/>
</radialGradient>
<radialGradient id="paint1_radial_8:130" cx="0" cy="0" r="1" gradientUnits="userSpaceOnUse" gradientTransform="translate(103.77 118.5) scale(14.2374 2.5)">
<stop stop-color="#181818"/>
<stop offset="1" stop-color="#181818" stop-opacity="0"/>
</radialGradient>
<radialGradient id="paint2_radial_8:130" cx="0" cy="0" r="1" gradientUnits="userSpaceOnUse" gradientTransform="translate(24.2305 118.5) rotate(180) scale(14.2374 2.5)">
<stop stop-color="#181818"/>
<stop offset="1" stop-color="#181818" stop-opacity="0"/>
</radialGradient>
<linearGradient id="paint3_linear_8:130" x1="67.0072" y1="121.02" x2="67.0072" y2="116" gradientUnits="userSpaceOnUse">
<stop stop-color="#181818" stop-opacity="0"/>
<stop offset="0.5" stop-color="#181818"/>
<stop offset="1" stop-color="#181818" stop-opacity="0"/>
</linearGradient>
<radialGradient id="paint4_radial_8:130" cx="0" cy="0" r="1" gradientUnits="userSpaceOnUse" gradientTransform="translate(66.131 -35.1757) rotate(90) scale(308.594 378.855)">
<stop stop-color="#919CAF"/>
<stop offset="0.26238" stop-color="#68758E"/>
<stop offset="0.704952" stop-color="#485A6C"/>
<stop offset="1" stop-color="#8190AE"/>
</radialGradient>
<linearGradient id="paint5_linear_8:130" x1="64" y1="16.6486" x2="64" y2="119.351" gradientUnits="userSpaceOnUse">
<stop stop-color="white"/>
<stop offset="0.0631645" stop-color="white" stop-opacity="0.235294"/>
<stop offset="0.950563" stop-color="white" stop-opacity="0.156863"/>
<stop offset="1" stop-color="white" stop-opacity="0.392157"/>
</linearGradient>
<linearGradient id="paint6_linear_8:130" x1="40" y1="-1.08108" x2="40" y2="81.0811" gradientUnits="userSpaceOnUse">
<stop stop-color="white"/>
<stop offset="0.0631645" stop-color="white" stop-opacity="0.235294"/>
<stop offset="0.950563" stop-color="#808080" stop-opacity="0.156863"/>
<stop offset="1" stop-opacity="0.392157"/>
</linearGradient>
<linearGradient id="paint7_linear_8:130" x1="30" y1="-0.810812" x2="30" y2="60.8108" gradientUnits="userSpaceOnUse">
<stop stop-color="white"/>
<stop offset="0.0631645" stop-color="white" stop-opacity="0.235294"/>
<stop offset="0.950563" stop-color="#818181" stop-opacity="0.156863"/>
<stop offset="1" stop-opacity="0.392157"/>
</linearGradient>
<linearGradient id="paint8_linear_8:130" x1="20" y1="-0.540541" x2="20" y2="40.5406" gradientUnits="userSpaceOnUse">
<stop stop-color="white"/>
<stop offset="0.0631645" stop-color="white" stop-opacity="0.235294"/>
<stop offset="0.950563" stop-color="#808080" stop-opacity="0.156863"/>
<stop offset="1" stop-opacity="0.392157"/>
</linearGradient>
</defs>
</svg>
