<svg width="16" height="16" viewBox="0 0 16 16" fill="none" xmlns="http://www.w3.org/2000/svg">
<rect x="2" y="2" width="12" height="12" rx="1" fill="url(#paint0_radial_8:72)"/>
<rect x="2" y="2" width="12" height="12" rx="1" fill="#CCEAF0" style="mix-blend-mode:color"/>
<rect x="2" y="2" width="12" height="12" rx="1" fill="white" style="mix-blend-mode:soft-light"/>
<rect x="2" y="2" width="12" height="12" rx="1" fill="white" fill-opacity="0.8" style="mix-blend-mode:soft-light"/>
<rect x="1.75893" y="1.75893" width="12.4821" height="12.4821" rx="1.24107" stroke="#1C2C38" stroke-opacity="0.2" stroke-width="0.482143"/>
<rect x="1.51786" y="1.51786" width="12.9643" height="12.9643" rx="1.48214" stroke="#387E8C" stroke-opacity="0.5" stroke-width="0.964286"/>
<rect opacity="0.3" x="2.48214" y="2.48214" width="11.0357" height="11.0357" rx="0.517857" stroke="url(#paint1_linear_8:72)" stroke-width="0.964286" stroke-linecap="round" stroke-linejoin="round"/>
<rect x="4" y="4" width="8" height="8" rx="0.2" fill="#CCEAF0" style="mix-blend-mode:multiply"/>
<rect x="3.75893" y="3.75893" width="8.48214" height="8.48214" rx="0.441071" stroke="#1C2C38" stroke-opacity="0.2" stroke-width="0.482143"/>
<rect x="3.51786" y="3.51786" width="8.96429" height="8.96428" rx="0.682143" stroke="#387E8C" stroke-opacity="0.5" stroke-width="0.964286"/>
<g opacity="0.3">
<mask id="path-8-inside-1_8:72" fill="white">
<rect width="8" height="8" rx="0.2" transform="matrix(1 0 0 -1 4 12)"/>
</mask>
<rect width="8" height="8" rx="0.2" transform="matrix(1 0 0 -1 4 12)" stroke="url(#paint2_linear_8:72)" stroke-width="1.92857" stroke-linecap="round" stroke-linejoin="round" mask="url(#path-8-inside-1_8:72)"/>
</g>
<rect x="6" y="6" width="4" height="4" fill="#CCEAF0" style="mix-blend-mode:multiply"/>
<rect x="5.75893" y="5.75893" width="4.48214" height="4.48214" stroke="#1C2C38" stroke-opacity="0.2" stroke-width="0.482143"/>
<rect x="5.51786" y="5.51786" width="4.96429" height="4.96429" stroke="#387E8C" stroke-opacity="0.5" stroke-width="0.964286"/>
<rect opacity="0.3" x="0.482143" y="-0.482143" width="3.03571" height="3.03571" transform="matrix(1 0 0 -1 6 9.03571)" stroke="url(#paint3_linear_8:72)" stroke-width="0.964286" stroke-linecap="round" stroke-linejoin="round"/>
<rect x="6" y="6" width="4" height="4" fill="#CCEAF0" style="mix-blend-mode:multiply"/>
<rect x="5.75893" y="5.75893" width="4.48214" height="4.48214" stroke="#1C2C38" stroke-opacity="0.2" stroke-width="0.482143"/>
<rect x="5.51786" y="5.51786" width="4.96429" height="4.96429" stroke="#387E8C" stroke-opacity="0.5" stroke-width="0.964286"/>
<rect opacity="0.3" x="0.482143" y="-0.482143" width="3.03571" height="3.03571" transform="matrix(1 0 0 -1 6 9.03571)" stroke="url(#paint4_linear_8:72)" stroke-width="0.964286" stroke-linecap="round" stroke-linejoin="round"/>
<mask id="mask0_8:72" style="mask-type:alpha" maskUnits="userSpaceOnUse" x="6" y="6" width="4" height="4">
<rect x="6" y="6" width="4" height="4" rx="0.1" fill="#C4C4C4"/>
</mask>
<g mask="url(#mask0_8:72)">
<rect x="6" y="6" width="2" height="2" fill="#D6D6D6" style="mix-blend-mode:multiply"/>
<rect x="8" y="8" width="2" height="2" fill="white" style="mix-blend-mode:multiply"/>
<rect x="8" y="6" width="2" height="2" fill="#6A6A6A" style="mix-blend-mode:multiply"/>
<rect x="6" y="8" width="2" height="2" fill="#B7B7B7" style="mix-blend-mode:multiply"/>
</g>
<g opacity="0.3">
<rect width="4" height="4" transform="matrix(1 0 0 -1 6 10)" stroke="#818181" stroke-width="0.964286" stroke-linecap="round" stroke-linejoin="round" style="mix-blend-mode:multiply"/>
</g>
<defs>
<radialGradient id="paint0_radial_8:72" cx="0" cy="0" r="1" gradientUnits="userSpaceOnUse" gradientTransform="translate(8.25572 -4.38108) rotate(90) scale(37.0313 45.4626)">
<stop stop-color="#919CAF"/>
<stop offset="0.26238" stop-color="#68758E"/>
<stop offset="0.704952" stop-color="#485A6C"/>
<stop offset="1" stop-color="#8190AE"/>
</radialGradient>
<linearGradient id="paint1_linear_8:72" x1="8" y1="1.83784" x2="8" y2="14.1622" gradientUnits="userSpaceOnUse">
<stop stop-color="white"/>
<stop offset="0.0631645" stop-color="white" stop-opacity="0.235294"/>
<stop offset="0.950563" stop-color="white" stop-opacity="0.156863"/>
<stop offset="1" stop-color="white" stop-opacity="0.392157"/>
</linearGradient>
<linearGradient id="paint2_linear_8:72" x1="4" y1="-0.108108" x2="4" y2="8.10811" gradientUnits="userSpaceOnUse">
<stop stop-color="white"/>
<stop offset="0.0631645" stop-color="white" stop-opacity="0.235294"/>
<stop offset="0.950563" stop-color="#808080" stop-opacity="0.156863"/>
<stop offset="1" stop-opacity="0.392157"/>
</linearGradient>
<linearGradient id="paint3_linear_8:72" x1="2" y1="-0.0540541" x2="2" y2="4.05406" gradientUnits="userSpaceOnUse">
<stop stop-color="white"/>
<stop offset="0.0631645" stop-color="white" stop-opacity="0.235294"/>
<stop offset="0.950563" stop-color="#818181" stop-opacity="0.156863"/>
<stop offset="1" stop-opacity="0.392157"/>
</linearGradient>
<linearGradient id="paint4_linear_8:72" x1="2" y1="-0.0540541" x2="2" y2="4.05406" gradientUnits="userSpaceOnUse">
<stop stop-color="white"/>
<stop offset="0.0631645" stop-color="white" stop-opacity="0.235294"/>
<stop offset="0.950563" stop-color="#808080" stop-opacity="0.156863"/>
<stop offset="1" stop-opacity="0.392157"/>
</linearGradient>
</defs>
</svg>
