<svg width="32" height="32" viewBox="0 0 32 32" fill="none" xmlns="http://www.w3.org/2000/svg">
<g opacity="0.4">
<path opacity="0.4" d="M30 28H26.3158V31H30V28Z" fill="url(#paint0_radial_8:92)"/>
<path opacity="0.4" d="M2 31H5.68421V28H2V31Z" fill="url(#paint1_radial_8:92)"/>
<path opacity="0.4" d="M26.3158 28H5.68421V31H26.3158V28Z" fill="url(#paint2_linear_8:92)"/>
</g>
<rect x="3" y="3" width="26" height="26" rx="2.5" fill="url(#paint3_radial_8:92)"/>
<rect x="3" y="3" width="26" height="26" rx="2.5" fill="#CCEAF0" style="mix-blend-mode:color"/>
<rect x="3" y="3" width="26" height="26" rx="2.5" fill="white" style="mix-blend-mode:soft-light"/>
<rect x="3" y="3" width="26" height="26" rx="2.5" fill="white" fill-opacity="0.8" style="mix-blend-mode:soft-light"/>
<rect x="2.75893" y="2.75893" width="26.4821" height="26.4821" rx="2.74107" stroke="#1C2C38" stroke-opacity="0.2" stroke-width="0.482143"/>
<rect x="2.51786" y="2.51786" width="26.9643" height="26.9643" rx="2.98214" stroke="#387E8C" stroke-opacity="0.5" stroke-width="0.964286"/>
<rect opacity="0.3" x="3.48214" y="3.48214" width="25.0357" height="25.0357" rx="2.01786" stroke="url(#paint4_linear_8:92)" stroke-width="0.964286" stroke-linecap="round" stroke-linejoin="round"/>
<rect x="6" y="6" width="20" height="20" rx="1.5" fill="#CCEAF0" style="mix-blend-mode:multiply"/>
<rect x="5.75893" y="5.75893" width="20.4821" height="20.4821" rx="1.74107" stroke="#1C2C38" stroke-opacity="0.2" stroke-width="0.482143"/>
<rect x="5.51786" y="5.51786" width="20.9643" height="20.9643" rx="1.98214" stroke="#387E8C" stroke-opacity="0.5" stroke-width="0.964286"/>
<rect opacity="0.3" x="0.482143" y="-0.482143" width="19.0357" height="19.0357" rx="1.01786" transform="matrix(1 0 0 -1 6 25.0357)" stroke="url(#paint5_linear_8:92)" stroke-width="0.964286" stroke-linecap="round" stroke-linejoin="round"/>
<rect x="9" y="9" width="14" height="14" rx="1" fill="#CCEAF0" style="mix-blend-mode:multiply"/>
<rect x="8.75893" y="8.75893" width="14.4821" height="14.4821" rx="1.24107" stroke="#1C2C38" stroke-opacity="0.2" stroke-width="0.482143"/>
<rect x="8.51786" y="8.51786" width="14.9643" height="14.9643" rx="1.48214" stroke="#387E8C" stroke-opacity="0.5" stroke-width="0.964286"/>
<rect opacity="0.3" x="0.482143" y="-0.482143" width="13.0357" height="13.0357" rx="0.517857" transform="matrix(1 0 0 -1 9 22.0357)" stroke="url(#paint6_linear_8:92)" stroke-width="0.964286" stroke-linecap="round" stroke-linejoin="round"/>
<rect x="12" y="12" width="8" height="8" rx="0.5" fill="#CCEAF0" style="mix-blend-mode:multiply"/>
<rect x="11.7589" y="11.7589" width="8.48214" height="8.48214" rx="0.741071" stroke="#1C2C38" stroke-opacity="0.2" stroke-width="0.482143"/>
<rect x="11.5179" y="11.5179" width="8.96429" height="8.96428" rx="0.982143" stroke="#387E8C" stroke-opacity="0.5" stroke-width="0.964286"/>
<g opacity="0.3">
<mask id="path-19-inside-1_8:92" fill="white">
<rect width="8" height="8" rx="0.5" transform="matrix(1 0 0 -1 12 20)"/>
</mask>
<rect width="8" height="8" rx="0.5" transform="matrix(1 0 0 -1 12 20)" stroke="url(#paint7_linear_8:92)" stroke-width="1.92857" stroke-linecap="round" stroke-linejoin="round" mask="url(#path-19-inside-1_8:92)"/>
</g>
<mask id="mask0_8:92" style="mask-type:alpha" maskUnits="userSpaceOnUse" x="12" y="12" width="8" height="8">
<rect x="12" y="12" width="8" height="8" rx="0.5" fill="#C4C4C4"/>
</mask>
<g mask="url(#mask0_8:92)">
<rect x="11" y="11" width="2" height="2" fill="#B3B3B3" style="mix-blend-mode:multiply"/>
<rect x="11" y="13" width="2" height="2" fill="#C7C7C7" style="mix-blend-mode:multiply"/>
<rect x="11" y="15" width="2" height="2" fill="white" style="mix-blend-mode:multiply"/>
<rect x="11" y="17" width="2" height="2" fill="#9A9A9A" style="mix-blend-mode:multiply"/>
<rect x="11" y="19" width="2" height="2" fill="#CECECE" style="mix-blend-mode:multiply"/>
<rect x="13" y="11" width="2" height="2" fill="#CECECE" style="mix-blend-mode:multiply"/>
<rect x="13" y="13" width="2" height="2" fill="#9A9A9A" style="mix-blend-mode:multiply"/>
<rect x="13" y="15" width="2" height="2" fill="#D6D6D6" style="mix-blend-mode:multiply"/>
<rect x="13" y="17" width="2" height="2" fill="white" style="mix-blend-mode:multiply"/>
<rect x="13" y="19" width="2" height="2" fill="#B0B0B0" style="mix-blend-mode:multiply"/>
<rect x="15" y="11" width="2" height="2" fill="#9A9A9A" style="mix-blend-mode:multiply"/>
<rect x="15" y="13" width="2" height="2" fill="#BBBBBB" style="mix-blend-mode:multiply"/>
<rect x="15" y="15" width="2" height="2" fill="#6A6A6A" style="mix-blend-mode:multiply"/>
<rect x="15" y="17" width="2" height="2" fill="#B3B3B3" style="mix-blend-mode:multiply"/>
<rect x="15" y="19" width="2" height="2" fill="#9A9A9A" style="mix-blend-mode:multiply"/>
<path d="M17 11H19V13H17V11Z" fill="white" style="mix-blend-mode:multiply"/>
<rect x="17" y="13" width="2" height="2" fill="#898989" style="mix-blend-mode:multiply"/>
<rect x="17" y="15" width="2" height="2" fill="#9A9A9A" style="mix-blend-mode:multiply"/>
<rect x="17" y="17" width="2" height="2" fill="#808080" style="mix-blend-mode:multiply"/>
<rect x="17" y="19" width="2" height="2" fill="white" style="mix-blend-mode:multiply"/>
<path d="M19 11H21V13H19V11Z" fill="#D6D6D6" style="mix-blend-mode:multiply"/>
<rect x="19" y="13" width="2" height="2" fill="#B3B3B3" style="mix-blend-mode:multiply"/>
<rect x="19" y="15" width="2" height="2" fill="#E1E1E1" style="mix-blend-mode:multiply"/>
<rect x="19" y="17" width="2" height="2" fill="#9A9A9A" style="mix-blend-mode:multiply"/>
<rect x="19" y="19" width="2" height="2" fill="#B9B9B9" style="mix-blend-mode:multiply"/>
</g>
<g opacity="0.3">
<rect width="8" height="8" rx="0.5" transform="matrix(1 0 0 -1 12 20)" stroke="#818181" stroke-width="0.964286" stroke-linecap="round" stroke-linejoin="round" style="mix-blend-mode:multiply"/>
</g>
<defs>
<radialGradient id="paint0_radial_8:92" cx="0" cy="0" r="1" gradientUnits="userSpaceOnUse" gradientTransform="translate(26.3106 29.5) scale(3.69118 1.5)">
<stop stop-color="#181818"/>
<stop offset="1" stop-color="#181818" stop-opacity="0"/>
</radialGradient>
<radialGradient id="paint1_radial_8:92" cx="0" cy="0" r="1" gradientUnits="userSpaceOnUse" gradientTransform="translate(5.68938 29.5) rotate(180) scale(3.69118 1.5)">
<stop stop-color="#181818"/>
<stop offset="1" stop-color="#181818" stop-opacity="0"/>
</radialGradient>
<linearGradient id="paint2_linear_8:92" x1="16.7797" y1="31.0119" x2="16.7797" y2="27.9998" gradientUnits="userSpaceOnUse">
<stop stop-color="#181818" stop-opacity="0"/>
<stop offset="0.5" stop-color="#181818"/>
<stop offset="1" stop-color="#181818" stop-opacity="0"/>
</linearGradient>
<radialGradient id="paint3_radial_8:92" cx="0" cy="0" r="1" gradientUnits="userSpaceOnUse" gradientTransform="translate(16.5541 -10.8257) rotate(90) scale(80.2345 98.5024)">
<stop stop-color="#919CAF"/>
<stop offset="0.26238" stop-color="#68758E"/>
<stop offset="0.704952" stop-color="#485A6C"/>
<stop offset="1" stop-color="#8190AE"/>
</radialGradient>
<linearGradient id="paint4_linear_8:92" x1="16" y1="2.64865" x2="16" y2="29.3514" gradientUnits="userSpaceOnUse">
<stop stop-color="white"/>
<stop offset="0.0631645" stop-color="white" stop-opacity="0.235294"/>
<stop offset="0.950563" stop-color="white" stop-opacity="0.156863"/>
<stop offset="1" stop-color="white" stop-opacity="0.392157"/>
</linearGradient>
<linearGradient id="paint5_linear_8:92" x1="10" y1="-0.270271" x2="10" y2="20.2703" gradientUnits="userSpaceOnUse">
<stop stop-color="white"/>
<stop offset="0.0631645" stop-color="white" stop-opacity="0.235294"/>
<stop offset="0.950563" stop-color="#808080" stop-opacity="0.156863"/>
<stop offset="1" stop-opacity="0.392157"/>
</linearGradient>
<linearGradient id="paint6_linear_8:92" x1="7" y1="-0.189189" x2="7" y2="14.1892" gradientUnits="userSpaceOnUse">
<stop stop-color="white"/>
<stop offset="0.0631645" stop-color="white" stop-opacity="0.235294"/>
<stop offset="0.950563" stop-color="#818181" stop-opacity="0.156863"/>
<stop offset="1" stop-opacity="0.392157"/>
</linearGradient>
<linearGradient id="paint7_linear_8:92" x1="4" y1="-0.108108" x2="4" y2="8.10811" gradientUnits="userSpaceOnUse">
<stop stop-color="white"/>
<stop offset="0.0631645" stop-color="white" stop-opacity="0.235294"/>
<stop offset="0.950563" stop-color="#808080" stop-opacity="0.156863"/>
<stop offset="1" stop-opacity="0.392157"/>
</linearGradient>
</defs>
</svg>
