<svg width="64" height="64" viewBox="0 0 64 64" fill="none" xmlns="http://www.w3.org/2000/svg">
<g opacity="0.4">
<path opacity="0.4" d="M62.0001 57H54.1054V62H62.0001V57Z" fill="url(#paint0_radial_8:117)"/>
<path opacity="0.4" d="M2 62H9.89475V57H2V62Z" fill="url(#paint1_radial_8:117)"/>
<path opacity="0.4" d="M54.1054 57H9.89475V62H54.1054V57Z" fill="url(#paint2_linear_8:117)"/>
</g>
<rect x="5" y="5" width="54" height="54" rx="5" fill="url(#paint3_radial_8:117)"/>
<rect x="5" y="5" width="54" height="54" rx="5" fill="#CCEAF0" style="mix-blend-mode:color"/>
<rect x="5" y="5" width="54" height="54" rx="5" fill="white" style="mix-blend-mode:soft-light"/>
<rect x="5" y="5" width="54" height="54" rx="5" fill="white" fill-opacity="0.8" style="mix-blend-mode:soft-light"/>
<rect x="4.75893" y="4.75893" width="54.4821" height="54.4821" rx="5.24107" stroke="#1C2C38" stroke-opacity="0.2" stroke-width="0.482143"/>
<rect x="4.51786" y="4.51786" width="54.9643" height="54.9643" rx="5.48214" stroke="#387E8C" stroke-opacity="0.5" stroke-width="0.964286"/>
<rect opacity="0.3" x="5.48214" y="5.48214" width="53.0357" height="53.0357" rx="4.51786" stroke="url(#paint4_linear_8:117)" stroke-width="0.964286" stroke-linecap="round" stroke-linejoin="round"/>
<rect x="11" y="11" width="42" height="42" rx="3" fill="#CCEAF0" style="mix-blend-mode:multiply"/>
<rect x="10.7589" y="10.7589" width="42.4821" height="42.4821" rx="3.24107" stroke="#1C2C38" stroke-opacity="0.2" stroke-width="0.482143"/>
<rect x="10.5179" y="10.5179" width="42.9643" height="42.9643" rx="3.48214" stroke="#387E8C" stroke-opacity="0.5" stroke-width="0.964286"/>
<rect opacity="0.3" x="0.482143" y="-0.482143" width="41.0357" height="41.0357" rx="2.51786" transform="matrix(1 0 0 -1 11 52.0357)" stroke="url(#paint5_linear_8:117)" stroke-width="0.964286" stroke-linecap="round" stroke-linejoin="round"/>
<rect x="16" y="16" width="32" height="32" rx="2" fill="#CCEAF0" style="mix-blend-mode:multiply"/>
<rect x="15.7589" y="15.7589" width="32.4821" height="32.4821" rx="2.24107" stroke="#1C2C38" stroke-opacity="0.2" stroke-width="0.482143"/>
<rect x="15.5179" y="15.5179" width="32.9643" height="32.9643" rx="2.48214" stroke="#387E8C" stroke-opacity="0.5" stroke-width="0.964286"/>
<rect opacity="0.3" x="0.482143" y="-0.482143" width="31.0357" height="31.0357" rx="1.51786" transform="matrix(1 0 0 -1 16 47.0357)" stroke="url(#paint6_linear_8:117)" stroke-width="0.964286" stroke-linecap="round" stroke-linejoin="round"/>
<rect x="22" y="22" width="20" height="20" rx="1" fill="#CCEAF0" style="mix-blend-mode:multiply"/>
<rect x="21.7589" y="21.7589" width="20.4821" height="20.4821" rx="1.24107" stroke="#1C2C38" stroke-opacity="0.2" stroke-width="0.482143"/>
<rect x="21.5179" y="21.5179" width="20.9643" height="20.9643" rx="1.48214" stroke="#387E8C" stroke-opacity="0.5" stroke-width="0.964286"/>
<rect opacity="0.3" x="0.482143" y="-0.482143" width="19.0357" height="19.0357" rx="0.517857" transform="matrix(1 0 0 -1 22 41.0357)" stroke="url(#paint7_linear_8:117)" stroke-width="0.964286" stroke-linecap="round" stroke-linejoin="round"/>
<mask id="mask0_8:117" style="mask-type:alpha" maskUnits="userSpaceOnUse" x="22" y="22" width="20" height="20">
<rect x="22" y="22" width="20" height="20" rx="0.964286" fill="#C4C4C4"/>
</mask>
<g mask="url(#mask0_8:117)">
<rect x="22" y="22" width="4" height="4" fill="#B3B3B3" style="mix-blend-mode:multiply"/>
<rect x="22" y="26" width="4" height="4" fill="#C7C7C7" style="mix-blend-mode:multiply"/>
<rect x="22" y="30" width="4" height="4" fill="white" style="mix-blend-mode:multiply"/>
<rect x="22" y="34" width="4" height="4" fill="#9A9A9A" style="mix-blend-mode:multiply"/>
<rect x="22" y="38" width="4" height="4" fill="#CECECE" style="mix-blend-mode:multiply"/>
<rect x="26" y="22" width="4" height="4" fill="#CECECE" style="mix-blend-mode:multiply"/>
<rect x="26" y="26" width="4" height="4" fill="#9A9A9A" style="mix-blend-mode:multiply"/>
<rect x="26" y="30" width="4" height="4" fill="#D6D6D6" style="mix-blend-mode:multiply"/>
<rect x="26" y="34" width="4" height="4" fill="white" style="mix-blend-mode:multiply"/>
<rect x="26" y="38" width="4" height="4" fill="#B0B0B0" style="mix-blend-mode:multiply"/>
<rect x="30" y="22" width="4" height="4" fill="#9A9A9A" style="mix-blend-mode:multiply"/>
<rect x="30" y="26" width="4" height="4" fill="#BBBBBB" style="mix-blend-mode:multiply"/>
<rect x="30" y="30" width="4" height="4" fill="#6A6A6A" style="mix-blend-mode:multiply"/>
<rect x="30" y="34" width="4" height="4" fill="#B3B3B3" style="mix-blend-mode:multiply"/>
<rect x="30" y="38" width="4" height="4" fill="#9A9A9A" style="mix-blend-mode:multiply"/>
<rect x="34" y="22" width="4" height="4" fill="white" style="mix-blend-mode:multiply"/>
<rect x="34" y="26" width="4" height="4" fill="#898989" style="mix-blend-mode:multiply"/>
<rect x="34" y="30" width="4" height="4" fill="#9A9A9A" style="mix-blend-mode:multiply"/>
<rect x="34" y="34" width="4" height="4" fill="#808080" style="mix-blend-mode:multiply"/>
<rect x="34" y="38" width="4" height="4" fill="white" style="mix-blend-mode:multiply"/>
<rect x="38" y="22" width="4" height="4" fill="#D6D6D6" style="mix-blend-mode:multiply"/>
<rect x="38" y="26" width="4" height="4" fill="#B3B3B3" style="mix-blend-mode:multiply"/>
<rect x="38" y="30" width="4" height="4" fill="#E1E1E1" style="mix-blend-mode:multiply"/>
<rect x="38" y="34" width="4" height="4" fill="#9A9A9A" style="mix-blend-mode:multiply"/>
<rect x="38" y="38" width="4" height="4" fill="#B9B9B9" style="mix-blend-mode:multiply"/>
</g>
<g opacity="0.3">
<rect width="20" height="20" rx="0.964286" transform="matrix(1 0 0 -1 22 42)" stroke="#818181" stroke-width="0.964286" stroke-linecap="round" stroke-linejoin="round" style="mix-blend-mode:multiply"/>
</g>
<defs>
<radialGradient id="paint0_radial_8:117" cx="0" cy="0" r="1" gradientUnits="userSpaceOnUse" gradientTransform="translate(54.0943 59.5) scale(7.90969 2.5)">
<stop stop-color="#181818"/>
<stop offset="1" stop-color="#181818" stop-opacity="0"/>
</radialGradient>
<radialGradient id="paint1_radial_8:117" cx="0" cy="0" r="1" gradientUnits="userSpaceOnUse" gradientTransform="translate(9.90583 59.5) rotate(180) scale(7.90969 2.5)">
<stop stop-color="#181818"/>
<stop offset="1" stop-color="#181818" stop-opacity="0"/>
</radialGradient>
<linearGradient id="paint2_linear_8:117" x1="33.6707" y1="62.0198" x2="33.6707" y2="56.9996" gradientUnits="userSpaceOnUse">
<stop stop-color="#181818" stop-opacity="0"/>
<stop offset="0.5" stop-color="#181818"/>
<stop offset="1" stop-color="#181818" stop-opacity="0"/>
</linearGradient>
<radialGradient id="paint3_radial_8:117" cx="0" cy="0" r="1" gradientUnits="userSpaceOnUse" gradientTransform="translate(33.1507 -23.7149) rotate(90) scale(166.641 204.582)">
<stop stop-color="#919CAF"/>
<stop offset="0.26238" stop-color="#68758E"/>
<stop offset="0.704952" stop-color="#485A6C"/>
<stop offset="1" stop-color="#8190AE"/>
</radialGradient>
<linearGradient id="paint4_linear_8:117" x1="32" y1="4.27027" x2="32" y2="59.7297" gradientUnits="userSpaceOnUse">
<stop stop-color="white"/>
<stop offset="0.0631645" stop-color="white" stop-opacity="0.235294"/>
<stop offset="0.950563" stop-color="white" stop-opacity="0.156863"/>
<stop offset="1" stop-color="white" stop-opacity="0.392157"/>
</linearGradient>
<linearGradient id="paint5_linear_8:117" x1="21" y1="-0.567568" x2="21" y2="42.5676" gradientUnits="userSpaceOnUse">
<stop stop-color="white"/>
<stop offset="0.0631645" stop-color="white" stop-opacity="0.235294"/>
<stop offset="0.950563" stop-color="#808080" stop-opacity="0.156863"/>
<stop offset="1" stop-opacity="0.392157"/>
</linearGradient>
<linearGradient id="paint6_linear_8:117" x1="16" y1="-0.432433" x2="16" y2="32.4324" gradientUnits="userSpaceOnUse">
<stop stop-color="white"/>
<stop offset="0.0631645" stop-color="white" stop-opacity="0.235294"/>
<stop offset="0.950563" stop-color="#818181" stop-opacity="0.156863"/>
<stop offset="1" stop-opacity="0.392157"/>
</linearGradient>
<linearGradient id="paint7_linear_8:117" x1="10" y1="-0.270271" x2="10" y2="20.2703" gradientUnits="userSpaceOnUse">
<stop stop-color="white"/>
<stop offset="0.0631645" stop-color="white" stop-opacity="0.235294"/>
<stop offset="0.950563" stop-color="#808080" stop-opacity="0.156863"/>
<stop offset="1" stop-opacity="0.392157"/>
</linearGradient>
</defs>
</svg>
