<svg width="64" height="64" viewBox="0 0 64 64" fill="none" xmlns="http://www.w3.org/2000/svg">
<g opacity="0.4">
<path opacity="0.4" d="M62.0001 57H54.1054V62H62.0001V57Z" fill="url(#paint0_radial)"/>
<path opacity="0.4" d="M2 62H9.89475V57H2V62Z" fill="url(#paint1_radial)"/>
<path opacity="0.4" d="M54.1054 57H9.89475V62H54.1054V57Z" fill="url(#paint2_linear)"/>
</g>
<rect x="5" y="5" width="54" height="54" rx="5" fill="url(#paint3_radial)"/>
<rect x="4.75" y="4.75" width="54.5" height="54.5" rx="5.25" stroke="#1C2C38" stroke-opacity="0.2" stroke-width="0.5"/>
<rect x="4.51786" y="4.51786" width="54.9643" height="54.9643" rx="5.48214" stroke="#387E8C" stroke-opacity="0.5" stroke-width="0.964286"/>
<rect opacity="0.3" x="5.48214" y="5.48214" width="53.0357" height="53.0357" rx="4.51786" stroke="url(#paint4_linear)" stroke-width="0.964286" stroke-linecap="round" stroke-linejoin="round"/>
<rect x="11" y="11" width="42" height="42" rx="3" fill="#98CED8"/>
<rect x="10.7589" y="10.7589" width="42.4821" height="42.4821" rx="3.24107" stroke="#1C2C38" stroke-opacity="0.2" stroke-width="0.482143"/>
<rect x="10.5179" y="10.5179" width="42.9643" height="42.9643" rx="3.48214" stroke="#387E8C" stroke-opacity="0.5" stroke-width="0.964286"/>
<rect opacity="0.3" x="0.482143" y="-0.482143" width="41.0357" height="41.0357" rx="2.51786" transform="matrix(1 0 0 -1 11 52.0357)" stroke="url(#paint5_linear)" stroke-width="0.964286" stroke-linecap="round" stroke-linejoin="round"/>
<rect x="17" y="17" width="30" height="30" rx="2" fill="#7ABDCB"/>
<rect x="16.7589" y="16.7589" width="30.4821" height="30.4821" rx="2.24107" stroke="#1C2C38" stroke-opacity="0.2" stroke-width="0.482143"/>
<rect x="16.5179" y="16.5179" width="30.9643" height="30.9643" rx="2.48214" stroke="#387E8C" stroke-opacity="0.5" stroke-width="0.964286"/>
<rect opacity="0.3" x="0.482143" y="-0.482143" width="29.0357" height="29.0357" rx="1.51786" transform="matrix(1 0 0 -1 17 46.0357)" stroke="url(#paint6_linear)" stroke-width="0.964286" stroke-linecap="round" stroke-linejoin="round"/>
<rect x="22" y="22" width="20" height="20" rx="1" fill="#62ADBF"/>
<rect x="21.7589" y="21.7589" width="20.4821" height="20.4821" rx="1.24107" stroke="#1C2C38" stroke-opacity="0.2" stroke-width="0.482143"/>
<rect x="21.5179" y="21.5179" width="20.9643" height="20.9643" rx="1.48214" stroke="#387E8C" stroke-opacity="0.5" stroke-width="0.964286"/>
<rect opacity="0.3" x="0.482143" y="-0.482143" width="19.0357" height="19.0357" rx="0.517857" transform="matrix(1 0 0 -1 22 41.0357)" stroke="url(#paint7_linear)" stroke-width="0.964286" stroke-linecap="round" stroke-linejoin="round"/>
<mask id="mask0" mask-type="alpha" maskUnits="userSpaceOnUse" x="22" y="22" width="20" height="20">
<rect x="22" y="22" width="20" height="20" rx="0.964286" fill="#C4C4C4"/>
</mask>
<g mask="url(#mask0)">
<rect x="22" y="22" width="4" height="4" fill="#447985"/>
<rect x="22" y="26" width="4" height="4" fill="#4C8795"/>
<rect x="22" y="30" width="4" height="4" fill="#62ADBF"/>
<rect x="22" y="34" width="4" height="4" fill="#3B6873"/>
<rect x="22" y="38" width="4" height="4" fill="#4F8C9A"/>
<rect x="26" y="22" width="4" height="4" fill="#4F8C9A"/>
<rect x="26" y="26" width="4" height="4" fill="#3B6873"/>
<rect x="26" y="30" width="4" height="4" fill="#5291A0"/>
<rect x="26" y="34" width="4" height="4" fill="#62ADBF"/>
<rect x="26" y="38" width="4" height="4" fill="#447784"/>
<rect x="30" y="22" width="4" height="4" fill="#3B6873"/>
<rect x="30" y="26" width="4" height="4" fill="#487F8C"/>
<rect x="30" y="30" width="4" height="4" fill="#29484F"/>
<rect x="30" y="34" width="4" height="4" fill="#447985"/>
<rect x="30" y="38" width="4" height="4" fill="#3B6873"/>
<rect x="34" y="22" width="4" height="4" fill="#62ADBF"/>
<rect x="34" y="26" width="4" height="4" fill="#355D67"/>
<rect x="34" y="30" width="4" height="4" fill="#3B6873"/>
<rect x="34" y="34" width="4" height="4" fill="#315760"/>
<rect x="34" y="38" width="4" height="4" fill="#62ADBF"/>
<rect x="38" y="22" width="4" height="4" fill="#5291A0"/>
<rect x="38" y="26" width="4" height="4" fill="#447985"/>
<rect x="38" y="30" width="4" height="4" fill="#5699A9"/>
<rect x="38" y="34" width="4" height="4" fill="#3B6873"/>
<rect x="38" y="38" width="4" height="4" fill="#477E8B"/>
</g>
<rect opacity="0.3" width="20" height="20" rx="0.964286" transform="matrix(1 0 0 -1 22 42)" stroke="#333333" stroke-width="0.964286" stroke-linecap="round" stroke-linejoin="round"/>
<defs>
<radialGradient id="paint0_radial" cx="0" cy="0" r="1" gradientUnits="userSpaceOnUse" gradientTransform="translate(54.0943 59.5) scale(7.90969 2.5)">
<stop stop-color="#181818"/>
<stop offset="1" stop-color="#181818" stop-opacity="0"/>
</radialGradient>
<radialGradient id="paint1_radial" cx="0" cy="0" r="1" gradientUnits="userSpaceOnUse" gradientTransform="translate(9.90583 59.5) rotate(180) scale(7.90969 2.5)">
<stop stop-color="#181818"/>
<stop offset="1" stop-color="#181818" stop-opacity="0"/>
</radialGradient>
<linearGradient id="paint2_linear" x1="33.6707" y1="62.0198" x2="33.6707" y2="56.9996" gradientUnits="userSpaceOnUse">
<stop stop-color="#181818" stop-opacity="0"/>
<stop offset="0.5" stop-color="#181818"/>
<stop offset="1" stop-color="#181818" stop-opacity="0"/>
</linearGradient>
<radialGradient id="paint3_radial" cx="0" cy="0" r="1" gradientUnits="userSpaceOnUse" gradientTransform="translate(33.1507 -23.7149) rotate(90) scale(166.641 204.582)">
<stop stop-color="#DCFAFF"/>
<stop offset="0.26238" stop-color="#D9FAFF" stop-opacity="0.9"/>
<stop offset="0.704952" stop-color="#80CFD4"/>
<stop offset="1" stop-color="#7EC2C2"/>
</radialGradient>
<linearGradient id="paint4_linear" x1="32" y1="4.27027" x2="32" y2="59.7297" gradientUnits="userSpaceOnUse">
<stop stop-color="white"/>
<stop offset="0.0631645" stop-color="white" stop-opacity="0.235294"/>
<stop offset="0.950563" stop-color="white" stop-opacity="0.156863"/>
<stop offset="1" stop-color="white" stop-opacity="0.392157"/>
</linearGradient>
<linearGradient id="paint5_linear" x1="21" y1="-0.567568" x2="21" y2="42.5676" gradientUnits="userSpaceOnUse">
<stop stop-color="white"/>
<stop offset="0.0631645" stop-color="white" stop-opacity="0.235294"/>
<stop offset="0.950563" stop-color="#808080" stop-opacity="0.156863"/>
<stop offset="1" stop-opacity="0.392157"/>
</linearGradient>
<linearGradient id="paint6_linear" x1="15" y1="-0.405406" x2="15" y2="30.4054" gradientUnits="userSpaceOnUse">
<stop stop-color="white"/>
<stop offset="0.0631645" stop-color="white" stop-opacity="0.235294"/>
<stop offset="0.950563" stop-color="#818181" stop-opacity="0.156863"/>
<stop offset="1" stop-opacity="0.392157"/>
</linearGradient>
<linearGradient id="paint7_linear" x1="10" y1="-0.270271" x2="10" y2="20.2703" gradientUnits="userSpaceOnUse">
<stop stop-color="white"/>
<stop offset="0.0631645" stop-color="white" stop-opacity="0.235294"/>
<stop offset="0.950563" stop-color="#808080" stop-opacity="0.156863"/>
<stop offset="1" stop-opacity="0.392157"/>
</linearGradient>
</defs>
</svg>
